<?xml version="1.0" encoding="utf-8"?>
<svg xmlns="http://www.w3.org/2000/svg" xmlns:xlink="http://www.w3.org/1999/xlink" width="600" height="400" viewBox="0 0 2400 1600">
<defs>
  <clipPath id="clip160">
    <rect x="0" y="0" width="2400" height="1600"/>
  </clipPath>
</defs>
<path clip-path="url(#clip160)" d="M0 1600 L2400 1600 L2400 0 L0 0  Z" fill="#ffffff" fill-rule="evenodd" fill-opacity="1"/>
<defs>
  <clipPath id="clip161">
    <rect x="140" y="47" width="2213" height="1440"/>
  </clipPath>
</defs>
<path clip-path="url(#clip160)" d="M140.696 1486.45 L2352.76 1486.45 L2352.76 47.2441 L140.696 47.2441  Z" fill="#ffffff" fill-rule="evenodd" fill-opacity="1"/>
<polyline clip-path="url(#clip161)" style="stroke:#000000; stroke-linecap:round; stroke-linejoin:round; stroke-width:2; stroke-opacity:0.1; fill:none" points="203.301,1486.45 203.301,47.2441 "/>
<polyline clip-path="url(#clip161)" style="stroke:#000000; stroke-linecap:round; stroke-linejoin:round; stroke-width:2; stroke-opacity:0.1; fill:none" points="573.31,1486.45 573.31,47.2441 "/>
<polyline clip-path="url(#clip161)" style="stroke:#000000; stroke-linecap:round; stroke-linejoin:round; stroke-width:2; stroke-opacity:0.1; fill:none" points="943.319,1486.45 943.319,47.2441 "/>
<polyline clip-path="url(#clip161)" style="stroke:#000000; stroke-linecap:round; stroke-linejoin:round; stroke-width:2; stroke-opacity:0.1; fill:none" points="1313.33,1486.45 1313.33,47.2441 "/>
<polyline clip-path="url(#clip161)" style="stroke:#000000; stroke-linecap:round; stroke-linejoin:round; stroke-width:2; stroke-opacity:0.1; fill:none" points="1683.34,1486.45 1683.34,47.2441 "/>
<polyline clip-path="url(#clip161)" style="stroke:#000000; stroke-linecap:round; stroke-linejoin:round; stroke-width:2; stroke-opacity:0.1; fill:none" points="2053.34,1486.45 2053.34,47.2441 "/>
<polyline clip-path="url(#clip161)" style="stroke:#000000; stroke-linecap:round; stroke-linejoin:round; stroke-width:2; stroke-opacity:0.1; fill:none" points="140.696,1445.72 2352.76,1445.72 "/>
<polyline clip-path="url(#clip161)" style="stroke:#000000; stroke-linecap:round; stroke-linejoin:round; stroke-width:2; stroke-opacity:0.1; fill:none" points="140.696,1184.61 2352.76,1184.61 "/>
<polyline clip-path="url(#clip161)" style="stroke:#000000; stroke-linecap:round; stroke-linejoin:round; stroke-width:2; stroke-opacity:0.1; fill:none" points="140.696,923.508 2352.76,923.508 "/>
<polyline clip-path="url(#clip161)" style="stroke:#000000; stroke-linecap:round; stroke-linejoin:round; stroke-width:2; stroke-opacity:0.1; fill:none" points="140.696,662.404 2352.76,662.404 "/>
<polyline clip-path="url(#clip161)" style="stroke:#000000; stroke-linecap:round; stroke-linejoin:round; stroke-width:2; stroke-opacity:0.1; fill:none" points="140.696,401.301 2352.76,401.301 "/>
<polyline clip-path="url(#clip161)" style="stroke:#000000; stroke-linecap:round; stroke-linejoin:round; stroke-width:2; stroke-opacity:0.1; fill:none" points="140.696,140.197 2352.76,140.197 "/>
<polyline clip-path="url(#clip160)" style="stroke:#000000; stroke-linecap:round; stroke-linejoin:round; stroke-width:4; stroke-opacity:1; fill:none" points="140.696,1486.45 2352.76,1486.45 "/>
<polyline clip-path="url(#clip160)" style="stroke:#000000; stroke-linecap:round; stroke-linejoin:round; stroke-width:4; stroke-opacity:1; fill:none" points="203.301,1486.45 203.301,1467.55 "/>
<polyline clip-path="url(#clip160)" style="stroke:#000000; stroke-linecap:round; stroke-linejoin:round; stroke-width:4; stroke-opacity:1; fill:none" points="573.31,1486.45 573.31,1467.55 "/>
<polyline clip-path="url(#clip160)" style="stroke:#000000; stroke-linecap:round; stroke-linejoin:round; stroke-width:4; stroke-opacity:1; fill:none" points="943.319,1486.45 943.319,1467.55 "/>
<polyline clip-path="url(#clip160)" style="stroke:#000000; stroke-linecap:round; stroke-linejoin:round; stroke-width:4; stroke-opacity:1; fill:none" points="1313.33,1486.45 1313.33,1467.55 "/>
<polyline clip-path="url(#clip160)" style="stroke:#000000; stroke-linecap:round; stroke-linejoin:round; stroke-width:4; stroke-opacity:1; fill:none" points="1683.34,1486.45 1683.34,1467.55 "/>
<polyline clip-path="url(#clip160)" style="stroke:#000000; stroke-linecap:round; stroke-linejoin:round; stroke-width:4; stroke-opacity:1; fill:none" points="2053.34,1486.45 2053.34,1467.55 "/>
<path clip-path="url(#clip160)" d="M203.301 1517.37 Q199.69 1517.37 197.861 1520.93 Q196.056 1524.47 196.056 1531.6 Q196.056 1538.71 197.861 1542.27 Q199.69 1545.82 203.301 1545.82 Q206.935 1545.82 208.741 1542.27 Q210.57 1538.71 210.57 1531.6 Q210.57 1524.47 208.741 1520.93 Q206.935 1517.37 203.301 1517.37 M203.301 1513.66 Q209.111 1513.66 212.167 1518.27 Q215.245 1522.85 215.245 1531.6 Q215.245 1540.33 212.167 1544.94 Q209.111 1549.52 203.301 1549.52 Q197.491 1549.52 194.412 1544.94 Q191.357 1540.33 191.357 1531.6 Q191.357 1522.85 194.412 1518.27 Q197.491 1513.66 203.301 1513.66 Z" fill="#000000" fill-rule="nonzero" fill-opacity="1" /><path clip-path="url(#clip160)" d="M552.581 1544.91 L568.9 1544.91 L568.9 1548.85 L546.956 1548.85 L546.956 1544.91 Q549.618 1542.16 554.201 1537.53 Q558.808 1532.88 559.988 1531.53 Q562.233 1529.01 563.113 1527.27 Q564.016 1525.51 564.016 1523.82 Q564.016 1521.07 562.071 1519.33 Q560.15 1517.6 557.048 1517.6 Q554.849 1517.6 552.396 1518.36 Q549.965 1519.13 547.187 1520.68 L547.187 1515.95 Q550.011 1514.82 552.465 1514.24 Q554.919 1513.66 556.956 1513.66 Q562.326 1513.66 565.52 1516.35 Q568.715 1519.03 568.715 1523.52 Q568.715 1525.65 567.905 1527.57 Q567.118 1529.47 565.011 1532.07 Q564.433 1532.74 561.331 1535.95 Q558.229 1539.15 552.581 1544.91 Z" fill="#000000" fill-rule="nonzero" fill-opacity="1" /><path clip-path="url(#clip160)" d="M578.761 1514.29 L597.118 1514.29 L597.118 1518.22 L583.044 1518.22 L583.044 1526.7 Q584.062 1526.35 585.081 1526.19 Q586.099 1526 587.118 1526 Q592.905 1526 596.284 1529.17 Q599.664 1532.34 599.664 1537.76 Q599.664 1543.34 596.192 1546.44 Q592.719 1549.52 586.4 1549.52 Q584.224 1549.52 581.956 1549.15 Q579.71 1548.78 577.303 1548.04 L577.303 1543.34 Q579.386 1544.47 581.608 1545.03 Q583.831 1545.58 586.307 1545.58 Q590.312 1545.58 592.65 1543.48 Q594.988 1541.37 594.988 1537.76 Q594.988 1534.15 592.65 1532.04 Q590.312 1529.94 586.307 1529.94 Q584.432 1529.94 582.557 1530.35 Q580.706 1530.77 578.761 1531.65 L578.761 1514.29 Z" fill="#000000" fill-rule="nonzero" fill-opacity="1" /><path clip-path="url(#clip160)" d="M918.018 1514.29 L936.374 1514.29 L936.374 1518.22 L922.3 1518.22 L922.3 1526.7 Q923.319 1526.35 924.337 1526.19 Q925.356 1526 926.374 1526 Q932.161 1526 935.541 1529.17 Q938.92 1532.34 938.92 1537.76 Q938.92 1543.34 935.448 1546.44 Q931.976 1549.52 925.657 1549.52 Q923.481 1549.52 921.212 1549.15 Q918.967 1548.78 916.559 1548.04 L916.559 1543.34 Q918.643 1544.47 920.865 1545.03 Q923.087 1545.58 925.564 1545.58 Q929.569 1545.58 931.907 1543.48 Q934.245 1541.37 934.245 1537.76 Q934.245 1534.15 931.907 1532.04 Q929.569 1529.94 925.564 1529.94 Q923.689 1529.94 921.814 1530.35 Q919.962 1530.77 918.018 1531.65 L918.018 1514.29 Z" fill="#000000" fill-rule="nonzero" fill-opacity="1" /><path clip-path="url(#clip160)" d="M958.133 1517.37 Q954.522 1517.37 952.693 1520.93 Q950.888 1524.47 950.888 1531.6 Q950.888 1538.71 952.693 1542.27 Q954.522 1545.82 958.133 1545.82 Q961.768 1545.82 963.573 1542.27 Q965.402 1538.71 965.402 1531.6 Q965.402 1524.47 963.573 1520.93 Q961.768 1517.37 958.133 1517.37 M958.133 1513.66 Q963.943 1513.66 966.999 1518.27 Q970.078 1522.85 970.078 1531.6 Q970.078 1540.33 966.999 1544.94 Q963.943 1549.52 958.133 1549.52 Q952.323 1549.52 949.244 1544.94 Q946.189 1540.33 946.189 1531.6 Q946.189 1522.85 949.244 1518.27 Q952.323 1513.66 958.133 1513.66 Z" fill="#000000" fill-rule="nonzero" fill-opacity="1" /><path clip-path="url(#clip160)" d="M1287.18 1514.29 L1309.4 1514.29 L1309.4 1516.28 L1296.86 1548.85 L1291.97 1548.85 L1303.78 1518.22 L1287.18 1518.22 L1287.18 1514.29 Z" fill="#000000" fill-rule="nonzero" fill-opacity="1" /><path clip-path="url(#clip160)" d="M1318.57 1514.29 L1336.93 1514.29 L1336.93 1518.22 L1322.85 1518.22 L1322.85 1526.7 Q1323.87 1526.35 1324.89 1526.19 Q1325.91 1526 1326.93 1526 Q1332.71 1526 1336.09 1529.17 Q1339.47 1532.34 1339.47 1537.76 Q1339.47 1543.34 1336 1546.44 Q1332.53 1549.52 1326.21 1549.52 Q1324.03 1549.52 1321.76 1549.15 Q1319.52 1548.78 1317.11 1548.04 L1317.11 1543.34 Q1319.2 1544.47 1321.42 1545.03 Q1323.64 1545.58 1326.12 1545.58 Q1330.12 1545.58 1332.46 1543.48 Q1334.8 1541.37 1334.8 1537.76 Q1334.8 1534.15 1332.46 1532.04 Q1330.12 1529.94 1326.12 1529.94 Q1324.24 1529.94 1322.37 1530.35 Q1320.51 1530.77 1318.57 1531.65 L1318.57 1514.29 Z" fill="#000000" fill-rule="nonzero" fill-opacity="1" /><path clip-path="url(#clip160)" d="M1642.94 1544.91 L1650.58 1544.91 L1650.58 1518.55 L1642.27 1520.21 L1642.27 1515.95 L1650.54 1514.29 L1655.21 1514.29 L1655.21 1544.91 L1662.85 1544.91 L1662.85 1548.85 L1642.94 1548.85 L1642.94 1544.91 Z" fill="#000000" fill-rule="nonzero" fill-opacity="1" /><path clip-path="url(#clip160)" d="M1682.29 1517.37 Q1678.68 1517.37 1676.85 1520.93 Q1675.05 1524.47 1675.05 1531.6 Q1675.05 1538.71 1676.85 1542.27 Q1678.68 1545.82 1682.29 1545.82 Q1685.93 1545.82 1687.73 1542.27 Q1689.56 1538.71 1689.56 1531.6 Q1689.56 1524.47 1687.73 1520.93 Q1685.93 1517.37 1682.29 1517.37 M1682.29 1513.66 Q1688.1 1513.66 1691.16 1518.27 Q1694.24 1522.85 1694.24 1531.6 Q1694.24 1540.33 1691.16 1544.94 Q1688.1 1549.52 1682.29 1549.52 Q1676.48 1549.52 1673.41 1544.94 Q1670.35 1540.33 1670.35 1531.6 Q1670.35 1522.85 1673.41 1518.27 Q1676.48 1513.66 1682.29 1513.66 Z" fill="#000000" fill-rule="nonzero" fill-opacity="1" /><path clip-path="url(#clip160)" d="M1712.46 1517.37 Q1708.85 1517.37 1707.02 1520.93 Q1705.21 1524.47 1705.21 1531.6 Q1705.21 1538.71 1707.02 1542.27 Q1708.85 1545.82 1712.46 1545.82 Q1716.09 1545.82 1717.9 1542.27 Q1719.72 1538.71 1719.72 1531.6 Q1719.72 1524.47 1717.9 1520.93 Q1716.09 1517.37 1712.46 1517.37 M1712.46 1513.66 Q1718.27 1513.66 1721.32 1518.27 Q1724.4 1522.85 1724.4 1531.6 Q1724.4 1540.33 1721.32 1544.94 Q1718.27 1549.52 1712.46 1549.52 Q1706.65 1549.52 1703.57 1544.94 Q1700.51 1540.33 1700.51 1531.6 Q1700.51 1522.85 1703.57 1518.27 Q1706.65 1513.66 1712.46 1513.66 Z" fill="#000000" fill-rule="nonzero" fill-opacity="1" /><path clip-path="url(#clip160)" d="M2013.45 1544.91 L2021.09 1544.91 L2021.09 1518.55 L2012.78 1520.21 L2012.78 1515.95 L2021.04 1514.29 L2025.72 1514.29 L2025.72 1544.91 L2033.36 1544.91 L2033.36 1548.85 L2013.45 1548.85 L2013.45 1544.91 Z" fill="#000000" fill-rule="nonzero" fill-opacity="1" /><path clip-path="url(#clip160)" d="M2046.83 1544.91 L2063.15 1544.91 L2063.15 1548.85 L2041.2 1548.85 L2041.2 1544.91 Q2043.87 1542.16 2048.45 1537.53 Q2053.06 1532.88 2054.24 1531.53 Q2056.48 1529.01 2057.36 1527.27 Q2058.26 1525.51 2058.26 1523.82 Q2058.26 1521.07 2056.32 1519.33 Q2054.4 1517.6 2051.3 1517.6 Q2049.1 1517.6 2046.64 1518.36 Q2044.21 1519.13 2041.44 1520.68 L2041.44 1515.95 Q2044.26 1514.82 2046.71 1514.24 Q2049.17 1513.66 2051.2 1513.66 Q2056.57 1513.66 2059.77 1516.35 Q2062.96 1519.03 2062.96 1523.52 Q2062.96 1525.65 2062.15 1527.57 Q2061.37 1529.47 2059.26 1532.07 Q2058.68 1532.74 2055.58 1535.95 Q2052.48 1539.15 2046.83 1544.91 Z" fill="#000000" fill-rule="nonzero" fill-opacity="1" /><path clip-path="url(#clip160)" d="M2073.01 1514.29 L2091.37 1514.29 L2091.37 1518.22 L2077.29 1518.22 L2077.29 1526.7 Q2078.31 1526.35 2079.33 1526.19 Q2080.35 1526 2081.37 1526 Q2087.15 1526 2090.53 1529.17 Q2093.91 1532.34 2093.91 1537.76 Q2093.91 1543.34 2090.44 1546.44 Q2086.97 1549.52 2080.65 1549.52 Q2078.47 1549.52 2076.2 1549.15 Q2073.96 1548.78 2071.55 1548.04 L2071.55 1543.34 Q2073.63 1544.47 2075.86 1545.03 Q2078.08 1545.58 2080.56 1545.58 Q2084.56 1545.58 2086.9 1543.48 Q2089.24 1541.37 2089.24 1537.76 Q2089.24 1534.15 2086.9 1532.04 Q2084.56 1529.94 2080.56 1529.94 Q2078.68 1529.94 2076.81 1530.35 Q2074.95 1530.77 2073.01 1531.65 L2073.01 1514.29 Z" fill="#000000" fill-rule="nonzero" fill-opacity="1" /><polyline clip-path="url(#clip160)" style="stroke:#000000; stroke-linecap:round; stroke-linejoin:round; stroke-width:4; stroke-opacity:1; fill:none" points="140.696,1486.45 140.696,47.2441 "/>
<polyline clip-path="url(#clip160)" style="stroke:#000000; stroke-linecap:round; stroke-linejoin:round; stroke-width:4; stroke-opacity:1; fill:none" points="140.696,1445.72 159.593,1445.72 "/>
<polyline clip-path="url(#clip160)" style="stroke:#000000; stroke-linecap:round; stroke-linejoin:round; stroke-width:4; stroke-opacity:1; fill:none" points="140.696,1184.61 159.593,1184.61 "/>
<polyline clip-path="url(#clip160)" style="stroke:#000000; stroke-linecap:round; stroke-linejoin:round; stroke-width:4; stroke-opacity:1; fill:none" points="140.696,923.508 159.593,923.508 "/>
<polyline clip-path="url(#clip160)" style="stroke:#000000; stroke-linecap:round; stroke-linejoin:round; stroke-width:4; stroke-opacity:1; fill:none" points="140.696,662.404 159.593,662.404 "/>
<polyline clip-path="url(#clip160)" style="stroke:#000000; stroke-linecap:round; stroke-linejoin:round; stroke-width:4; stroke-opacity:1; fill:none" points="140.696,401.301 159.593,401.301 "/>
<polyline clip-path="url(#clip160)" style="stroke:#000000; stroke-linecap:round; stroke-linejoin:round; stroke-width:4; stroke-opacity:1; fill:none" points="140.696,140.197 159.593,140.197 "/>
<path clip-path="url(#clip160)" d="M92.7512 1431.51 Q89.1401 1431.51 87.3114 1435.08 Q85.5058 1438.62 85.5058 1445.75 Q85.5058 1452.86 87.3114 1456.42 Q89.1401 1459.96 92.7512 1459.96 Q96.3854 1459.96 98.1909 1456.42 Q100.02 1452.86 100.02 1445.75 Q100.02 1438.62 98.1909 1435.08 Q96.3854 1431.51 92.7512 1431.51 M92.7512 1427.81 Q98.5613 1427.81 101.617 1432.42 Q104.696 1437 104.696 1445.75 Q104.696 1454.48 101.617 1459.08 Q98.5613 1463.67 92.7512 1463.67 Q86.941 1463.67 83.8623 1459.08 Q80.8068 1454.48 80.8068 1445.75 Q80.8068 1437 83.8623 1432.42 Q86.941 1427.81 92.7512 1427.81 Z" fill="#000000" fill-rule="nonzero" fill-opacity="1" /><path clip-path="url(#clip160)" d="M83.7929 1167.33 L102.149 1167.33 L102.149 1171.27 L88.0753 1171.27 L88.0753 1179.74 Q89.0938 1179.39 90.1123 1179.23 Q91.1308 1179.04 92.1493 1179.04 Q97.9363 1179.04 101.316 1182.22 Q104.696 1185.39 104.696 1190.8 Q104.696 1196.38 101.223 1199.48 Q97.7511 1202.56 91.4317 1202.56 Q89.2558 1202.56 86.9873 1202.19 Q84.7419 1201.82 82.3346 1201.08 L82.3346 1196.38 Q84.4179 1197.52 86.6401 1198.07 Q88.8623 1198.63 91.3391 1198.63 Q95.3437 1198.63 97.6817 1196.52 Q100.02 1194.42 100.02 1190.8 Q100.02 1187.19 97.6817 1185.09 Q95.3437 1182.98 91.3391 1182.98 Q89.4641 1182.98 87.5892 1183.4 Q85.7373 1183.81 83.7929 1184.69 L83.7929 1167.33 Z" fill="#000000" fill-rule="nonzero" fill-opacity="1" /><path clip-path="url(#clip160)" d="M53.3995 936.853 L61.0384 936.853 L61.0384 910.487 L52.7282 912.154 L52.7282 907.895 L60.9921 906.228 L65.668 906.228 L65.668 936.853 L73.3068 936.853 L73.3068 940.788 L53.3995 940.788 L53.3995 936.853 Z" fill="#000000" fill-rule="nonzero" fill-opacity="1" /><path clip-path="url(#clip160)" d="M92.7512 909.307 Q89.1401 909.307 87.3114 912.872 Q85.5058 916.413 85.5058 923.543 Q85.5058 930.649 87.3114 934.214 Q89.1401 937.756 92.7512 937.756 Q96.3854 937.756 98.1909 934.214 Q100.02 930.649 100.02 923.543 Q100.02 916.413 98.1909 912.872 Q96.3854 909.307 92.7512 909.307 M92.7512 905.603 Q98.5613 905.603 101.617 910.21 Q104.696 914.793 104.696 923.543 Q104.696 932.27 101.617 936.876 Q98.5613 941.46 92.7512 941.46 Q86.941 941.46 83.8623 936.876 Q80.8068 932.27 80.8068 923.543 Q80.8068 914.793 83.8623 910.21 Q86.941 905.603 92.7512 905.603 Z" fill="#000000" fill-rule="nonzero" fill-opacity="1" /><path clip-path="url(#clip160)" d="M54.3949 675.749 L62.0337 675.749 L62.0337 649.384 L53.7236 651.05 L53.7236 646.791 L61.9874 645.124 L66.6633 645.124 L66.6633 675.749 L74.3022 675.749 L74.3022 679.684 L54.3949 679.684 L54.3949 675.749 Z" fill="#000000" fill-rule="nonzero" fill-opacity="1" /><path clip-path="url(#clip160)" d="M83.7929 645.124 L102.149 645.124 L102.149 649.06 L88.0753 649.06 L88.0753 657.532 Q89.0938 657.185 90.1123 657.023 Q91.1308 656.837 92.1493 656.837 Q97.9363 656.837 101.316 660.009 Q104.696 663.18 104.696 668.597 Q104.696 674.175 101.223 677.277 Q97.7511 680.356 91.4317 680.356 Q89.2558 680.356 86.9873 679.985 Q84.7419 679.615 82.3346 678.874 L82.3346 674.175 Q84.4179 675.31 86.6401 675.865 Q88.8623 676.421 91.3391 676.421 Q95.3437 676.421 97.6817 674.314 Q100.02 672.208 100.02 668.597 Q100.02 664.985 97.6817 662.879 Q95.3437 660.773 91.3391 660.773 Q89.4641 660.773 87.5892 661.189 Q85.7373 661.606 83.7929 662.486 L83.7929 645.124 Z" fill="#000000" fill-rule="nonzero" fill-opacity="1" /><path clip-path="url(#clip160)" d="M56.6171 414.646 L72.9365 414.646 L72.9365 418.581 L50.9921 418.581 L50.9921 414.646 Q53.6541 411.891 58.2375 407.261 Q62.8439 402.609 64.0245 401.266 Q66.2698 398.743 67.1494 397.007 Q68.0522 395.248 68.0522 393.558 Q68.0522 390.803 66.1078 389.067 Q64.1865 387.331 61.0847 387.331 Q58.8856 387.331 56.4319 388.095 Q54.0014 388.859 51.2236 390.41 L51.2236 385.687 Q54.0477 384.553 56.5014 383.974 Q58.955 383.396 60.9921 383.396 Q66.3624 383.396 69.5568 386.081 Q72.7513 388.766 72.7513 393.257 Q72.7513 395.386 71.9411 397.308 Q71.1541 399.206 69.0476 401.798 Q68.4689 402.47 65.367 405.687 Q62.2652 408.882 56.6171 414.646 Z" fill="#000000" fill-rule="nonzero" fill-opacity="1" /><path clip-path="url(#clip160)" d="M92.7512 387.099 Q89.1401 387.099 87.3114 390.664 Q85.5058 394.206 85.5058 401.335 Q85.5058 408.442 87.3114 412.007 Q89.1401 415.548 92.7512 415.548 Q96.3854 415.548 98.1909 412.007 Q100.02 408.442 100.02 401.335 Q100.02 394.206 98.1909 390.664 Q96.3854 387.099 92.7512 387.099 M92.7512 383.396 Q98.5613 383.396 101.617 388.002 Q104.696 392.586 104.696 401.335 Q104.696 410.062 101.617 414.669 Q98.5613 419.252 92.7512 419.252 Q86.941 419.252 83.8623 414.669 Q80.8068 410.062 80.8068 401.335 Q80.8068 392.586 83.8623 388.002 Q86.941 383.396 92.7512 383.396 Z" fill="#000000" fill-rule="nonzero" fill-opacity="1" /><path clip-path="url(#clip160)" d="M57.6125 153.542 L73.9318 153.542 L73.9318 157.477 L51.9875 157.477 L51.9875 153.542 Q54.6495 150.787 59.2328 146.158 Q63.8393 141.505 65.0198 140.162 Q67.2652 137.639 68.1448 135.903 Q69.0476 134.144 69.0476 132.454 Q69.0476 129.699 67.1032 127.963 Q65.1819 126.227 62.08 126.227 Q59.881 126.227 57.4273 126.991 Q54.9967 127.755 52.219 129.306 L52.219 124.584 Q55.043 123.449 57.4967 122.871 Q59.9504 122.292 61.9874 122.292 Q67.3578 122.292 70.5522 124.977 Q73.7466 127.662 73.7466 132.153 Q73.7466 134.283 72.9365 136.204 Q72.1494 138.102 70.0429 140.695 Q69.4642 141.366 66.3624 144.584 Q63.2606 147.778 57.6125 153.542 Z" fill="#000000" fill-rule="nonzero" fill-opacity="1" /><path clip-path="url(#clip160)" d="M83.7929 122.917 L102.149 122.917 L102.149 126.852 L88.0753 126.852 L88.0753 135.324 Q89.0938 134.977 90.1123 134.815 Q91.1308 134.63 92.1493 134.63 Q97.9363 134.63 101.316 137.801 Q104.696 140.972 104.696 146.389 Q104.696 151.968 101.223 155.07 Q97.7511 158.148 91.4317 158.148 Q89.2558 158.148 86.9873 157.778 Q84.7419 157.408 82.3346 156.667 L82.3346 151.968 Q84.4179 153.102 86.6401 153.658 Q88.8623 154.213 91.3391 154.213 Q95.3437 154.213 97.6817 152.107 Q100.02 150 100.02 146.389 Q100.02 142.778 97.6817 140.672 Q95.3437 138.565 91.3391 138.565 Q89.4641 138.565 87.5892 138.982 Q85.7373 139.398 83.7929 140.278 L83.7929 122.917 Z" fill="#000000" fill-rule="nonzero" fill-opacity="1" /><polyline clip-path="url(#clip161)" style="stroke:#009af9; stroke-linecap:round; stroke-linejoin:round; stroke-width:4; stroke-opacity:1; fill:none" points="203.301,1445.72 203.301,1445.72 203.301,1393.49 203.301,1341.27 203.301,1289.05 203.301,1341.27 203.301,1289.05 203.301,1236.83 218.101,1236.83 218.101,1184.61 218.101,1132.39 218.101,1080.17 203.301,1080.17 203.301,1027.95 203.301,975.729 203.301,923.508 203.301,871.287 203.301,819.067 218.101,819.067 218.101,766.846 218.101,714.625 232.902,714.625 247.702,714.625 247.702,662.404 247.702,610.184 247.702,557.963 247.702,505.742 247.702,453.522 262.502,453.522 262.502,401.301 277.303,401.301 292.103,401.301 292.103,349.08 306.903,349.08 321.704,349.08 336.504,349.08 336.504,296.859 336.504,244.639 351.305,244.639 351.305,192.418 366.105,192.418 380.905,192.418 395.706,192.418 410.506,192.418 425.306,192.418 440.107,192.418 454.907,192.418 469.707,192.418 484.508,192.418 499.308,192.418 514.108,192.418 528.909,192.418 514.108,192.418 528.909,192.418 543.709,192.418 543.709,140.197 558.509,140.197 573.31,140.197 588.11,140.197 602.91,140.197 617.711,140.197 632.511,140.197 647.312,140.197 647.312,87.9763 662.112,87.9763 676.912,87.9763 676.912,140.197 691.713,140.197 706.513,140.197 721.313,140.197 736.114,140.197 736.114,87.9763 750.914,87.9763 765.714,87.9763 780.515,87.9763 765.714,87.9763 780.515,87.9763 795.315,87.9763 810.115,87.9763 824.916,87.9763 839.716,87.9763 854.516,87.9763 854.516,140.197 869.317,140.197 884.117,140.197 898.917,140.197 884.117,140.197 898.917,140.197 913.718,140.197 913.718,192.418 928.518,192.418 913.718,192.418 913.718,244.639 928.518,244.639 913.718,244.639 928.518,244.639 943.319,244.639 958.119,244.639 972.919,244.639 987.72,244.639 1002.52,244.639 1017.32,244.639 1032.12,244.639 1046.92,244.639 1061.72,244.639 1046.92,244.639 1061.72,244.639 1046.92,244.639 1061.72,244.639 1076.52,296.859 1091.32,296.859 1106.12,296.859 1120.92,296.859 1135.72,296.859 1150.52,296.859 1165.32,296.859 1180.12,296.859 1194.92,296.859 1209.72,296.859 1224.53,296.859 1239.33,296.859 1254.13,296.859 1254.13,349.08 1239.33,349.08 1254.13,349.08 1254.13,401.301 1239.33,401.301 1254.13,401.301 1268.93,401.301 1283.73,401.301 1298.53,401.301 1313.33,401.301 1328.13,401.301 1328.13,453.522 1313.33,453.522 1328.13,453.522 1342.93,453.522 1328.13,453.522 1342.93,453.522 1328.13,453.522 1342.93,453.522 1357.73,453.522 1342.93,453.522 1328.13,453.522 1328.13,505.742 1313.33,505.742 1328.13,505.742 1313.33,505.742 1298.53,505.742 1313.33,505.742 1328.13,505.742 1328.13,557.963 1342.93,557.963 1357.73,557.963 1372.53,557.963 1387.33,557.963 1402.13,557.963 1416.93,557.963 1431.73,557.963 1416.93,557.963 1416.93,610.184 1402.13,610.184 1416.93,610.184 1402.13,610.184 1416.93,610.184 1402.13,610.184 1387.33,610.184 1372.53,610.184 1387.33,610.184 1402.13,610.184 1416.93,610.184 1431.73,610.184 1446.53,610.184 1461.33,610.184 1446.53,610.184 1431.73,610.184 1416.93,610.184 1402.13,610.184 1416.93,610.184 1431.73,610.184 1431.73,662.404 1416.93,662.404 1431.73,662.404 1446.53,662.404 1431.73,662.404 1446.53,662.404 1431.73,662.404 1446.53,662.404 1446.53,714.625 1461.33,714.625 1446.53,714.625 1461.33,714.625 1476.13,714.625 1490.93,714.625 1476.13,714.625 1461.33,714.625 1446.53,714.625 1431.73,714.625 1446.53,714.625 1461.33,714.625 1446.53,714.625 1431.73,714.625 1431.73,766.846 1416.93,766.846 1431.73,766.846 1416.93,766.846 1431.73,766.846 1416.93,766.846 1402.13,766.846 1387.33,766.846 1372.53,766.846 1357.73,766.846 1342.93,766.846 1357.73,766.846 1372.53,766.846 1357.73,766.846 1342.93,766.846 1357.73,766.846 1342.93,766.846 1357.73,766.846 1372.53,766.846 1387.33,766.846 1402.13,766.846 1387.33,766.846 1402.13,766.846 1416.93,766.846 1431.73,766.846 1446.53,766.846 1461.33,766.846 1476.13,766.846 1490.93,766.846 1505.73,766.846 1520.53,766.846 1505.73,766.846 1520.53,766.846 1505.73,766.846 1490.93,766.846 1476.13,766.846 1461.33,766.846 1446.53,766.846 1461.33,766.846 1446.53,766.846 1461.33,766.846 1476.13,766.846 1461.33,766.846 1476.13,766.846 1490.93,766.846 1505.73,766.846 1520.53,766.846 1535.33,766.846 1520.53,766.846 1535.33,766.846 1550.13,766.846 1535.33,766.846 1520.53,766.846 1535.33,766.846 1550.13,766.846 1535.33,766.846 1535.33,819.067 1520.53,819.067 1535.33,819.067 1520.53,819.067 1535.33,819.067 1520.53,819.067 1505.73,819.067 1490.93,819.067 1476.13,819.067 1461.33,819.067 1446.53,819.067 1461.33,819.067 1446.53,819.067 1461.33,819.067 1446.53,819.067 1431.73,819.067 1446.53,819.067 1431.73,819.067 1416.93,819.067 1402.13,819.067 1387.33,819.067 1372.53,819.067 1387.33,819.067 1402.13,819.067 1416.93,819.067 1431.73,819.067 1431.73,871.287 1446.53,871.287 1431.73,871.287 1416.93,871.287 1402.13,871.287 1387.33,871.287 1372.53,871.287 1387.33,871.287 1402.13,871.287 1387.33,871.287 1402.13,871.287 1387.33,871.287 1402.13,871.287 1387.33,871.287 1372.53,871.287 1357.73,871.287 1342.93,871.287 1357.73,871.287 1342.93,871.287 1328.13,871.287 1313.33,871.287 1328.13,871.287 1342.93,871.287 1328.13,871.287 1313.33,871.287 1298.53,871.287 1283.73,871.287 1268.93,871.287 1254.13,871.287 1239.33,871.287 1239.33,923.508 1224.53,923.508 1239.33,923.508 1254.13,923.508 1239.33,923.508 1239.33,975.729 1239.33,1027.95 1224.53,1027.95 1209.72,1027.95 1194.92,1027.95 1180.12,1027.95 1165.32,1027.95 1180.12,1027.95 1194.92,1027.95 1209.72,1027.95 1224.53,1027.95 1209.72,1027.95 1194.92,1027.95 1209.72,1027.95 1194.92,1027.95 1209.72,1027.95 1224.53,1027.95 1239.33,1027.95 1254.13,1027.95 1239.33,1027.95 1224.53,1027.95 1239.33,1027.95 1254.13,1027.95 1239.33,1027.95 1224.53,1027.95 1239.33,1027.95 1254.13,1027.95 1239.33,1027.95 1254.13,1027.95 1268.93,1027.95 1254.13,1027.95 1239.33,1027.95 1224.53,1027.95 1239.33,1027.95 1254.13,1027.95 1268.93,1027.95 1283.73,1027.95 1298.53,1027.95 1313.33,1027.95 1328.13,1027.95 1313.33,1027.95 1328.13,1027.95 1313.33,1027.95 1328.13,1027.95 1342.93,1027.95 1357.73,1027.95 1372.53,1027.95 1387.33,1027.95 1387.33,1080.17 1402.13,1080.17 1387.33,1080.17 1402.13,1080.17 1416.93,1080.17 1431.73,1080.17 1416.93,1080.17 1431.73,1080.17 1416.93,1080.17 1431.73,1080.17 1446.53,1080.17 1461.33,1080.17 1446.53,1080.17 1431.73,1080.17 1446.53,1080.17 1461.33,1080.17 1476.13,1080.17 1490.93,1080.17 1476.13,1080.17 1461.33,1080.17 1446.53,1080.17 1431.73,1080.17 1416.93,1080.17 1431.73,1080.17 1416.93,1080.17 1431.73,1080.17 1446.53,1080.17 1461.33,1080.17 1476.13,1080.17 1461.33,1080.17 1476.13,1080.17 1461.33,1080.17 1476.13,1080.17 1461.33,1080.17 1446.53,1080.17 1461.33,1080.17 1476.13,1080.17 1490.93,1080.17 1505.73,1080.17 1520.53,1080.17 1535.33,1080.17 1550.13,1080.17 1535.33,1080.17 1520.53,1080.17 1535.33,1080.17 1550.13,1080.17 1564.93,1080.17 1579.73,1080.17 1564.93,1080.17 1550.13,1080.17 1564.93,1080.17 1579.73,1080.17 1594.53,1080.17 1579.73,1080.17 1594.53,1080.17 1579.73,1080.17 1564.93,1080.17 1579.73,1080.17 1594.53,1080.17 1579.73,1080.17 1564.93,1080.17 1550.13,1080.17 1564.93,1080.17 1550.13,1080.17 1535.33,1080.17 1520.53,1080.17 1505.73,1080.17 1490.93,1080.17 1476.13,1080.17 1490.93,1080.17 1505.73,1080.17 1520.53,1080.17 1505.73,1080.17 1520.53,1080.17 1535.33,1080.17 1550.13,1132.39 1535.33,1132.39 1550.13,1132.39 1535.33,1132.39 1550.13,1132.39 1535.33,1132.39 1520.53,1132.39 1505.73,1132.39 1490.93,1132.39 1505.73,1132.39 1490.93,1132.39 1505.73,1132.39 1490.93,1132.39 1476.13,1132.39 1461.33,1132.39 1446.53,1132.39 1431.73,1132.39 1446.53,1132.39 1431.73,1132.39 1446.53,1132.39 1461.33,1132.39 1476.13,1132.39 1490.93,1132.39 1490.93,1184.61 1476.13,1184.61 1490.93,1184.61 1476.13,1184.61 1461.33,1184.61 1476.13,1184.61 1490.93,1184.61 1505.73,1184.61 1520.53,1184.61 1535.33,1184.61 1550.13,1184.61 1564.93,1184.61 1579.73,1184.61 1564.93,1184.61 1579.73,1184.61 1564.93,1184.61 1579.73,1184.61 1564.93,1184.61 1579.73,1184.61 1564.93,1184.61 1579.73,1184.61 1594.53,1184.61 1609.33,1184.61 1624.13,1184.61 1609.33,1184.61 1624.13,1184.61 1638.94,1184.61 1624.13,1184.61 1624.13,1236.83 1638.94,1236.83 1624.13,1236.83 1638.94,1236.83 1653.74,1236.83 1638.94,1236.83 1653.74,1236.83 1668.54,1236.83 1653.74,1236.83 1668.54,1236.83 1653.74,1236.83 1668.54,1236.83 1668.54,1289.05 1653.74,1289.05 1638.94,1289.05 1653.74,1289.05 1638.94,1289.05 1653.74,1289.05 1638.94,1289.05 1653.74,1289.05 1638.94,1289.05 1653.74,1289.05 1668.54,1289.05 1653.74,1289.05 1638.94,1289.05 1653.74,1289.05 1638.94,1289.05 1638.94,1341.27 1653.74,1341.27 1668.54,1341.27 1653.74,1341.27 1668.54,1341.27 1653.74,1341.27 1638.94,1341.27 1653.74,1341.27 1668.54,1341.27 1653.74,1341.27 1683.34,1341.27 1698.14,1341.27 1712.94,1341.27 1698.14,1341.27 1712.94,1341.27 1698.14,1341.27 1712.94,1341.27 1727.74,1341.27 1712.94,1341.27 1698.14,1341.27 1683.34,1341.27 1668.54,1341.27 1683.34,1341.27 1698.14,1341.27 1683.34,1341.27 1668.54,1341.27 1668.54,1393.49 1653.74,1393.49 1668.54,1393.49 1683.34,1393.49 1698.14,1393.49 1712.94,1393.49 1698.14,1393.49 1683.34,1393.49 1698.14,1393.49 1712.94,1393.49 1698.14,1393.49 1683.34,1393.49 1668.54,1393.49 1653.74,1393.49 1668.54,1393.49 1653.74,1393.49 1668.54,1393.49 1683.34,1393.49 1668.54,1393.49 1683.34,1393.49 1668.54,1393.49 1683.34,1393.49 1668.54,1393.49 1653.74,1393.49 1638.94,1393.49 1653.74,1393.49 1638.94,1393.49 1653.74,1393.49 1668.54,1393.49 1653.74,1393.49 1668.54,1393.49 1653.74,1393.49 1638.94,1393.49 1653.74,1393.49 1668.54,1393.49 1653.74,1393.49 1668.54,1393.49 1683.34,1393.49 1668.54,1393.49 1683.34,1393.49 1698.14,1393.49 1683.34,1393.49 1668.54,1393.49 1653.74,1393.49 1668.54,1393.49 1653.74,1393.49 1668.54,1393.49 1653.74,1393.49 1668.54,1393.49 1683.34,1393.49 1698.14,1393.49 1683.34,1393.49 1668.54,1393.49 1653.74,1393.49 1668.54,1393.49 1653.74,1393.49 1638.94,1393.49 1653.74,1393.49 1668.54,1393.49 1683.34,1393.49 1698.14,1393.49 1683.34,1393.49 1698.14,1393.49 1712.94,1393.49 1698.14,1393.49 1683.34,1393.49 1698.14,1393.49 1712.94,1393.49 1727.74,1393.49 1742.54,1393.49 1727.74,1393.49 1742.54,1393.49 1757.34,1393.49 1742.54,1393.49 1757.34,1393.49 1772.14,1393.49 1757.34,1393.49 1742.54,1393.49 1727.74,1393.49 1712.94,1393.49 1727.74,1393.49 1712.94,1393.49 1698.14,1393.49 1712.94,1393.49 1742.54,1393.49 1727.74,1393.49 1742.54,1393.49 1757.34,1393.49 1772.14,1393.49 1786.94,1393.49 1772.14,1393.49 1757.34,1393.49 1742.54,1393.49 1757.34,1393.49 1772.14,1393.49 1786.94,1393.49 1772.14,1393.49 1757.34,1393.49 1742.54,1393.49 1727.74,1393.49 1742.54,1393.49 1727.74,1393.49 1712.94,1393.49 1727.74,1393.49 1742.54,1393.49 1727.74,1393.49 1712.94,1393.49 1727.74,1393.49 1712.94,1393.49 1698.14,1393.49 1683.34,1393.49 1698.14,1393.49 1683.34,1393.49 1698.14,1393.49 1683.34,1393.49 1668.54,1393.49 1683.34,1393.49 1698.14,1393.49 1683.34,1393.49 1698.14,1393.49 1712.94,1393.49 1727.74,1393.49 1742.54,1393.49 1727.74,1393.49 1742.54,1393.49 1727.74,1393.49 1742.54,1393.49 1727.74,1393.49 1712.94,1393.49 1698.14,1393.49 1683.34,1393.49 1698.14,1393.49 1683.34,1393.49 1698.14,1393.49 1683.34,1393.49 1698.14,1393.49 1712.94,1393.49 1698.14,1393.49 1683.34,1393.49 1698.14,1393.49 1712.94,1393.49 1727.74,1393.49 1742.54,1393.49 1757.34,1393.49 1772.14,1393.49 1786.94,1393.49 1772.14,1393.49 1757.34,1393.49 1742.54,1393.49 1727.74,1393.49 1742.54,1393.49 1757.34,1393.49 1742.54,1393.49 1727.74,1393.49 1742.54,1393.49 1757.34,1393.49 1742.54,1393.49 1727.74,1393.49 1742.54,1393.49 1757.34,1393.49 1742.54,1393.49 1727.74,1393.49 1742.54,1393.49 1727.74,1393.49 1712.94,1393.49 1698.14,1393.49 1712.94,1393.49 1742.54,1393.49 1727.74,1393.49 1712.94,1393.49 1698.14,1393.49 1683.34,1393.49 1698.14,1393.49 1683.34,1393.49 1698.14,1393.49 1712.94,1393.49 1727.74,1393.49 1712.94,1393.49 1698.14,1393.49 1712.94,1393.49 1698.14,1393.49 1683.34,1393.49 1668.54,1393.49 1653.74,1393.49 1668.54,1393.49 1653.74,1393.49 1668.54,1393.49 1653.74,1393.49 1638.94,1393.49 1653.74,1393.49 1668.54,1393.49 1683.34,1393.49 1668.54,1393.49 1683.34,1393.49 1668.54,1393.49 1653.74,1393.49 1668.54,1393.49 1653.74,1393.49 1638.94,1393.49 1624.13,1393.49 1609.33,1393.49 1594.53,1393.49 1579.73,1393.49 1594.53,1393.49 1579.73,1393.49 1594.53,1393.49 1609.33,1393.49 1594.53,1393.49 1579.73,1393.49 1564.93,1393.49 1579.73,1393.49 1564.93,1393.49 1579.73,1393.49 1594.53,1393.49 1609.33,1393.49 1594.53,1393.49 1579.73,1393.49 1564.93,1393.49 1550.13,1393.49 1535.33,1393.49 1550.13,1393.49 1564.93,1393.49 1550.13,1393.49 1535.33,1393.49 1520.53,1393.49 1505.73,1393.49 1490.93,1393.49 1505.73,1393.49 1520.53,1393.49 1505.73,1393.49 1520.53,1393.49 1505.73,1393.49 1490.93,1393.49 1476.13,1393.49 1490.93,1393.49 1505.73,1393.49 1520.53,1393.49 1535.33,1393.49 1505.73,1393.49 1490.93,1393.49 1505.73,1393.49 1520.53,1393.49 1535.33,1393.49 1550.13,1393.49 1564.93,1393.49 1550.13,1393.49 1535.33,1393.49 1520.53,1393.49 1505.73,1393.49 1490.93,1393.49 1505.73,1393.49 1520.53,1393.49 1535.33,1393.49 1520.53,1393.49 1505.73,1393.49 1520.53,1393.49 1535.33,1393.49 1550.13,1393.49 1535.33,1393.49 1520.53,1393.49 1535.33,1393.49 1550.13,1393.49 1520.53,1393.49 1535.33,1393.49 1550.13,1393.49 1564.93,1393.49 1579.73,1393.49 1594.53,1393.49 1579.73,1393.49 1564.93,1393.49 1579.73,1393.49 1564.93,1393.49 1579.73,1393.49 1594.53,1393.49 1579.73,1393.49 1594.53,1393.49 1579.73,1393.49 1594.53,1393.49 1609.33,1393.49 1594.53,1393.49 1594.53,1341.27 1579.73,1341.27 1564.93,1341.27 1564.93,1393.49 1550.13,1393.49 1535.33,1393.49 1520.53,1393.49 1505.73,1393.49 1490.93,1393.49 1476.13,1393.49 1476.13,1341.27 1490.93,1341.27 1476.13,1341.27 1490.93,1341.27 1505.73,1341.27 1520.53,1341.27 1505.73,1341.27 1520.53,1341.27 1505.73,1341.27 1490.93,1341.27 1476.13,1341.27 1461.33,1341.27 1446.53,1341.27 1461.33,1341.27 1476.13,1341.27 1461.33,1341.27 1476.13,1341.27 1461.33,1341.27 1446.53,1341.27 1461.33,1341.27 1446.53,1341.27 1431.73,1341.27 1446.53,1341.27 1461.33,1341.27 1476.13,1341.27 1461.33,1341.27 1476.13,1341.27 1461.33,1341.27 1446.53,1341.27 1461.33,1341.27 1476.13,1341.27 1490.93,1341.27 1505.73,1341.27 1520.53,1341.27 1505.73,1341.27 1520.53,1341.27 1535.33,1341.27 1520.53,1341.27 1535.33,1341.27 1520.53,1341.27 1505.73,1341.27 1490.93,1341.27 1505.73,1341.27 1490.93,1341.27 1476.13,1341.27 1490.93,1341.27 1505.73,1341.27 1520.53,1341.27 1535.33,1341.27 1550.13,1341.27 1535.33,1341.27 1550.13,1341.27 1535.33,1341.27 1520.53,1341.27 1535.33,1341.27 1520.53,1341.27 1535.33,1341.27 1520.53,1341.27 1535.33,1341.27 1550.13,1341.27 1564.93,1341.27 1579.73,1341.27 1564.93,1341.27 1579.73,1341.27 1594.53,1341.27 1609.33,1341.27 1594.53,1341.27 1609.33,1341.27 1624.13,1341.27 1609.33,1341.27 1594.53,1341.27 1609.33,1341.27 1624.13,1341.27 1638.94,1341.27 1653.74,1341.27 1668.54,1341.27 1683.34,1341.27 1698.14,1341.27 1712.94,1341.27 1683.34,1341.27 1683.34,1393.49 1668.54,1393.49 1683.34,1393.49 1698.14,1393.49 1683.34,1393.49 1668.54,1393.49 1683.34,1393.49 1698.14,1393.49 1683.34,1393.49 1698.14,1393.49 1712.94,1393.49 1727.74,1393.49 1712.94,1393.49 1727.74,1393.49 1712.94,1393.49 1698.14,1393.49 1712.94,1393.49 1698.14,1393.49 1712.94,1393.49 1698.14,1393.49 1683.34,1393.49 1668.54,1393.49 1653.74,1393.49 1668.54,1393.49 1653.74,1393.49 1668.54,1393.49 1683.34,1393.49 1698.14,1393.49 1712.94,1393.49 1698.14,1393.49 1712.94,1393.49 1698.14,1393.49 1683.34,1393.49 1668.54,1393.49 1653.74,1393.49 1638.94,1393.49 1624.13,1393.49 1638.94,1393.49 1624.13,1393.49 1638.94,1393.49 1624.13,1393.49 1638.94,1393.49 1653.74,1393.49 1638.94,1393.49 1624.13,1393.49 1609.33,1393.49 1624.13,1393.49 1638.94,1393.49 1624.13,1393.49 1609.33,1393.49 1624.13,1393.49 1609.33,1393.49 1594.53,1393.49 1609.33,1393.49 1624.13,1393.49 1609.33,1393.49 1624.13,1393.49 1638.94,1393.49 1624.13,1393.49 1638.94,1393.49 1624.13,1393.49 1638.94,1393.49 1624.13,1393.49 1638.94,1393.49 1653.74,1393.49 1638.94,1393.49 1653.74,1393.49 1668.54,1393.49 1653.74,1393.49 1638.94,1393.49 1624.13,1393.49 1638.94,1393.49 1653.74,1393.49 1638.94,1393.49 1624.13,1393.49 1609.33,1393.49 1594.53,1393.49 1579.73,1393.49 1594.53,1393.49 1579.73,1393.49 1594.53,1393.49 1609.33,1393.49 1594.53,1393.49 1579.73,1393.49 1564.93,1393.49 1550.13,1393.49 1535.33,1393.49 1520.53,1393.49 1535.33,1393.49 1520.53,1393.49 1535.33,1393.49 1520.53,1393.49 1505.73,1393.49 1520.53,1393.49 1535.33,1393.49 1550.13,1393.49 1564.93,1393.49 1579.73,1393.49 1594.53,1393.49 1609.33,1393.49 1594.53,1393.49 1579.73,1393.49 1594.53,1393.49 1609.33,1393.49 1624.13,1393.49 1609.33,1393.49 1594.53,1393.49 1579.73,1393.49 1564.93,1393.49 1550.13,1393.49 1564.93,1393.49 1579.73,1393.49 1594.53,1393.49 1579.73,1393.49 1564.93,1393.49 1550.13,1393.49 1535.33,1393.49 1550.13,1393.49 1535.33,1393.49 1520.53,1393.49 1535.33,1393.49 1520.53,1393.49 1505.73,1393.49 1490.93,1393.49 1476.13,1393.49 1461.33,1393.49 1476.13,1393.49 1461.33,1393.49 1476.13,1393.49 1490.93,1393.49 1476.13,1393.49 1490.93,1393.49 1476.13,1393.49 1490.93,1393.49 1505.73,1393.49 1490.93,1393.49 1476.13,1393.49 1490.93,1393.49 1505.73,1393.49 1490.93,1393.49 1505.73,1393.49 1490.93,1393.49 1476.13,1393.49 1461.33,1393.49 1446.53,1393.49 1431.73,1393.49 1446.53,1393.49 1431.73,1393.49 1446.53,1393.49 1431.73,1393.49 1416.93,1393.49 1402.13,1393.49 1416.93,1393.49 1431.73,1393.49 1416.93,1393.49 1402.13,1393.49 1416.93,1393.49 1402.13,1393.49 1416.93,1393.49 1431.73,1393.49 1416.93,1393.49 1402.13,1393.49 1387.33,1393.49 1402.13,1393.49 1416.93,1393.49 1402.13,1393.49 1416.93,1393.49 1402.13,1393.49 1416.93,1393.49 1431.73,1393.49 1416.93,1393.49 1431.73,1393.49 1446.53,1393.49 1431.73,1393.49 1416.93,1393.49 1431.73,1393.49 1416.93,1393.49 1416.93,1445.72 1402.13,1445.72 1387.33,1445.72 1402.13,1445.72 1416.93,1445.72 1402.13,1445.72 1387.33,1445.72 1402.13,1445.72 1416.93,1445.72 1431.73,1445.72 1446.53,1445.72 1431.73,1445.72 1446.53,1445.72 1461.33,1445.72 1476.13,1445.72 1490.93,1445.72 1476.13,1445.72 1490.93,1445.72 1476.13,1445.72 1490.93,1445.72 1476.13,1445.72 1461.33,1445.72 1446.53,1445.72 1461.33,1445.72 1446.53,1445.72 1431.73,1445.72 1446.53,1445.72 1431.73,1445.72 1446.53,1445.72 1431.73,1445.72 1416.93,1445.72 1431.73,1445.72 1446.53,1445.72 1461.33,1445.72 1476.13,1445.72 1461.33,1445.72 1476.13,1445.72 1490.93,1445.72 1505.73,1445.72 1490.93,1445.72 1505.73,1445.72 1490.93,1445.72 1505.73,1445.72 1490.93,1445.72 1476.13,1445.72 1461.33,1445.72 1446.53,1445.72 1461.33,1445.72 1446.53,1445.72 1461.33,1445.72 1446.53,1445.72 1461.33,1445.72 1446.53,1445.72 1461.33,1445.72 1446.53,1445.72 1446.53,1393.49 1431.73,1393.49 1416.93,1393.49 1416.93,1341.27 1402.13,1341.27 1416.93,1341.27 1431.73,1341.27 1416.93,1341.27 1402.13,1341.27 1402.13,1393.49 1416.93,1393.49 1431.73,1393.49 1416.93,1393.49 1431.73,1393.49 1446.53,1393.49 1461.33,1393.49 1446.53,1393.49 1461.33,1393.49 1476.13,1393.49 1461.33,1393.49 1476.13,1393.49 1461.33,1393.49 1476.13,1393.49 1490.93,1393.49 1476.13,1393.49 1461.33,1393.49 1476.13,1393.49 1490.93,1393.49 1505.73,1393.49 1490.93,1393.49 1476.13,1393.49 1490.93,1393.49 1490.93,1341.27 1505.73,1341.27 1520.53,1341.27 1505.73,1341.27 1520.53,1341.27 1535.33,1341.27 1550.13,1341.27 1564.93,1341.27 1579.73,1341.27 1594.53,1341.27 1609.33,1341.27 1624.13,1341.27 1609.33,1341.27 1624.13,1341.27 1609.33,1341.27 1594.53,1341.27 1609.33,1341.27 1624.13,1341.27 1638.94,1341.27 1653.74,1341.27 1668.54,1341.27 1653.74,1341.27 1668.54,1341.27 1683.34,1341.27 1698.14,1341.27 1712.94,1341.27 1727.74,1341.27 1742.54,1341.27 1727.74,1341.27 1742.54,1341.27 1757.34,1341.27 1772.14,1341.27 1786.94,1341.27 1801.74,1341.27 1786.94,1341.27 1801.74,1341.27 1816.54,1341.27 1816.54,1289.05 1801.74,1289.05 1816.54,1289.05 1831.34,1289.05 1816.54,1289.05 1831.34,1289.05 1846.14,1289.05 1831.34,1289.05 1831.34,1341.27 1846.14,1341.27 1860.94,1341.27 1875.74,1341.27 1890.54,1341.27 1875.74,1341.27 1890.54,1341.27 1875.74,1341.27 1860.94,1341.27 1846.14,1341.27 1831.34,1341.27 1846.14,1341.27 1860.94,1341.27 1846.14,1341.27 1831.34,1341.27 1846.14,1341.27 1860.94,1341.27 1875.74,1341.27 1860.94,1341.27 1846.14,1341.27 1860.94,1341.27 1846.14,1341.27 1860.94,1341.27 1875.74,1341.27 1890.54,1341.27 1875.74,1341.27 1860.94,1341.27 1875.74,1341.27 1890.54,1341.27 1905.34,1341.27 1890.54,1341.27 1875.74,1341.27 1890.54,1341.27 1875.74,1341.27 1860.94,1341.27 1860.94,1289.05 1875.74,1289.05 1890.54,1289.05 1905.34,1289.05 1890.54,1289.05 1905.34,1289.05 1920.14,1289.05 1934.94,1289.05 1920.14,1289.05 1905.34,1289.05 1905.34,1236.83 1920.14,1236.83 1934.94,1236.83 1920.14,1236.83 1905.34,1236.83 1920.14,1236.83 1905.34,1236.83 1890.54,1236.83 1905.34,1236.83 1920.14,1236.83 1934.94,1236.83 1949.74,1236.83 1964.54,1236.83 1949.74,1236.83 1964.54,1236.83 1949.74,1236.83 1964.54,1236.83 1979.34,1236.83 1994.14,1236.83 2008.94,1236.83 2023.74,1236.83 2008.94,1236.83 1994.14,1236.83 1994.14,1184.61 2008.94,1184.61 2023.74,1184.61 2008.94,1184.61 2023.74,1184.61 2038.54,1184.61 2053.34,1184.61 2068.15,1184.61 2053.34,1184.61 2038.54,1184.61 2053.34,1184.61 2082.95,1184.61 2097.75,1184.61 2112.55,1184.61 2127.35,1184.61 2142.15,1184.61 2127.35,1184.61 2142.15,1184.61 2127.35,1184.61 2112.55,1184.61 2097.75,1184.61 2082.95,1184.61 2082.95,1132.39 2097.75,1132.39 2097.75,1184.61 2112.55,1184.61 2127.35,1184.61 2142.15,1184.61 2156.95,1184.61 2142.15,1184.61 2156.95,1184.61 2171.75,1184.61 2156.95,1184.61 2171.75,1184.61 2186.55,1184.61 2201.35,1184.61 2186.55,1184.61 2171.75,1184.61 2186.55,1184.61 2201.35,1184.61 2216.15,1184.61 2201.35,1184.61 2216.15,1184.61 2230.95,1184.61 2216.15,1184.61 2201.35,1184.61 2216.15,1184.61 2201.35,1184.61 2186.55,1184.61 2201.35,1184.61 2186.55,1184.61 2171.75,1184.61 2156.95,1184.61 2142.15,1184.61 2142.15,1132.39 2127.35,1132.39 2112.55,1132.39 2127.35,1132.39 2112.55,1132.39 2127.35,1132.39 2142.15,1132.39 2156.95,1132.39 2171.75,1132.39 2186.55,1132.39 2171.75,1132.39 2186.55,1132.39 2171.75,1132.39 2186.55,1132.39 2171.75,1132.39 2186.55,1132.39 2201.35,1132.39 2186.55,1132.39 2171.75,1132.39 2186.55,1132.39 2201.35,1132.39 2186.55,1132.39 2201.35,1132.39 2216.15,1132.39 2230.95,1132.39 2216.15,1132.39 2230.95,1132.39 2216.15,1132.39 2201.35,1132.39 2216.15,1132.39 2230.95,1132.39 2216.15,1132.39 2230.95,1132.39 2245.75,1132.39 2230.95,1132.39 2245.75,1132.39 2230.95,1132.39 2245.75,1132.39 2260.55,1132.39 2245.75,1132.39 2245.75,1184.61 2260.55,1184.61 2245.75,1184.61 2230.95,1184.61 2245.75,1184.61 2260.55,1184.61 2245.75,1184.61 2230.95,1184.61 2245.75,1184.61 2230.95,1184.61 2216.15,1184.61 2230.95,1184.61 2245.75,1184.61 2260.55,1184.61 2245.75,1184.61 2260.55,1184.61 2245.75,1184.61 2260.55,1184.61 2275.35,1184.61 2290.15,1184.61 2275.35,1184.61 2260.55,1184.61 2275.35,1184.61 2260.55,1184.61 2245.75,1184.61 2230.95,1184.61 2245.75,1184.61 2230.95,1184.61 2216.15,1184.61 2230.95,1184.61 2245.75,1184.61 2260.55,1184.61 2275.35,1184.61 2260.55,1184.61 2275.35,1184.61 2260.55,1184.61 2245.75,1184.61 2260.55,1184.61 2245.75,1184.61 2230.95,1184.61 2216.15,1184.61 2201.35,1184.61 2186.55,1184.61 2201.35,1184.61 2216.15,1184.61 2201.35,1184.61 2186.55,1184.61 2171.75,1184.61 2186.55,1184.61 2201.35,1184.61 2216.15,1184.61 2230.95,1184.61 2216.15,1184.61 2201.35,1184.61 2186.55,1184.61 2171.75,1184.61 2156.95,1184.61 2171.75,1184.61 2186.55,1184.61 2201.35,1184.61 2186.55,1184.61 2171.75,1184.61 2186.55,1184.61 2201.35,1184.61 2216.15,1184.61 2230.95,1184.61 2216.15,1184.61 2201.35,1184.61 2186.55,1184.61 2171.75,1184.61 2156.95,1184.61 2171.75,1184.61 2186.55,1184.61 2171.75,1184.61 2156.95,1184.61 2171.75,1184.61 2156.95,1184.61 2171.75,1184.61 2156.95,1184.61 2142.15,1184.61 2127.35,1184.61 2142.15,1184.61 2156.95,1184.61 2171.75,1184.61 2186.55,1184.61 2171.75,1184.61 2156.95,1184.61 2171.75,1184.61 2186.55,1184.61 2201.35,1184.61 2186.55,1184.61 2171.75,1184.61 2156.95,1184.61 2142.15,1184.61 2127.35,1184.61 2112.55,1184.61 2097.75,1184.61 2082.95,1184.61 2068.15,1184.61 2082.95,1184.61 2097.75,1184.61 2112.55,1184.61 2127.35,1184.61 2112.55,1184.61 2127.35,1184.61 2112.55,1184.61 2127.35,1184.61 2142.15,1184.61 2156.95,1184.61 2142.15,1184.61 2127.35,1184.61 2112.55,1184.61 2097.75,1184.61 2082.95,1184.61 2068.15,1184.61 2082.95,1184.61 2097.75,1184.61 2112.55,1184.61 2127.35,1184.61 2142.15,1184.61 2127.35,1184.61 2112.55,1184.61 2127.35,1184.61 2112.55,1184.61 2097.75,1184.61 2112.55,1184.61 2127.35,1184.61 2142.15,1184.61 2156.95,1184.61 2142.15,1184.61 2156.95,1184.61 2171.75,1184.61 2186.55,1184.61 2171.75,1184.61 2186.55,1184.61 2201.35,1184.61 2186.55,1184.61 2201.35,1184.61 2216.15,1184.61 2201.35,1184.61 2186.55,1184.61 2201.35,1184.61 2186.55,1184.61 2201.35,1184.61 2216.15,1184.61 2201.35,1184.61 2216.15,1184.61 2201.35,1184.61 2186.55,1184.61 2171.75,1184.61 2156.95,1184.61 2171.75,1184.61 2186.55,1184.61 2171.75,1184.61 2171.75,1236.83 2156.95,1236.83 2171.75,1236.83 2156.95,1236.83 2171.75,1236.83 2156.95,1236.83 2171.75,1236.83 2156.95,1236.83 2142.15,1236.83 2156.95,1236.83 2142.15,1236.83 2127.35,1236.83 2112.55,1236.83 2097.75,1236.83 2112.55,1236.83 2127.35,1236.83 2112.55,1236.83 2127.35,1236.83 2112.55,1236.83 2097.75,1236.83 2112.55,1236.83 2127.35,1236.83 2142.15,1236.83 2127.35,1236.83 2112.55,1236.83 2127.35,1236.83 2112.55,1236.83 2097.75,1236.83 2082.95,1236.83 2097.75,1236.83 2112.55,1236.83 2127.35,1236.83 2112.55,1236.83 2127.35,1236.83 2142.15,1236.83 2127.35,1236.83 2142.15,1236.83 2142.15,1289.05 2156.95,1289.05 2171.75,1289.05 2186.55,1289.05 2201.35,1289.05 2186.55,1289.05 2171.75,1289.05 2156.95,1289.05 2171.75,1289.05 2156.95,1289.05 2142.15,1289.05 2127.35,1289.05 2112.55,1289.05 2097.75,1289.05 2082.95,1289.05 2068.15,1289.05 2082.95,1289.05 2068.15,1289.05 2053.34,1289.05 2068.15,1289.05 2053.34,1289.05 2068.15,1289.05 2053.34,1289.05 2038.54,1289.05 2053.34,1289.05 2068.15,1289.05 2053.34,1289.05 2038.54,1289.05 2023.74,1289.05 2008.94,1289.05 1994.14,1289.05 1979.34,1289.05 1964.54,1289.05 1979.34,1289.05 1994.14,1289.05 1994.14,1341.27 1979.34,1341.27 1964.54,1341.27 1949.74,1341.27 1934.94,1341.27 1949.74,1341.27 1934.94,1341.27 1920.14,1341.27 1905.34,1341.27 1890.54,1341.27 1875.74,1341.27 1860.94,1341.27 1846.14,1341.27 1831.34,1341.27 1846.14,1341.27 1860.94,1341.27 1875.74,1341.27 1890.54,1341.27 1875.74,1341.27 1890.54,1341.27 1875.74,1341.27 1860.94,1341.27 1846.14,1341.27 1831.34,1341.27 1816.54,1341.27 1831.34,1341.27 1846.14,1341.27 1831.34,1341.27 1816.54,1341.27 1831.34,1341.27 1846.14,1341.27 1831.34,1341.27 1816.54,1341.27 1801.74,1341.27 1786.94,1341.27 1772.14,1341.27 1786.94,1341.27 1801.74,1341.27 1816.54,1341.27 1831.34,1341.27 1846.14,1341.27 1831.34,1341.27 1846.14,1341.27 1860.94,1341.27 1875.74,1341.27 1890.54,1341.27 1875.74,1341.27 1890.54,1341.27 1875.74,1341.27 1860.94,1341.27 1846.14,1341.27 1831.34,1341.27 1816.54,1341.27 1831.34,1341.27 1846.14,1341.27 1860.94,1341.27 1875.74,1341.27 1860.94,1341.27 1875.74,1341.27 1890.54,1341.27 1905.34,1341.27 1920.14,1341.27 1905.34,1341.27 1920.14,1341.27 1905.34,1341.27 1920.14,1341.27 1934.94,1341.27 1920.14,1341.27 1934.94,1341.27 1920.14,1341.27 1934.94,1341.27 1920.14,1341.27 1934.94,1341.27 1920.14,1341.27 1905.34,1341.27 1890.54,1341.27 1860.94,1341.27 1846.14,1341.27 1860.94,1341.27 1846.14,1341.27 1831.34,1341.27 1816.54,1341.27 1801.74,1341.27 1786.94,1341.27 1772.14,1341.27 1757.34,1341.27 1772.14,1341.27 1757.34,1341.27 1742.54,1341.27 1727.74,1341.27 1712.94,1341.27 1698.14,1341.27 1683.34,1341.27 1668.54,1341.27 1683.34,1341.27 1668.54,1341.27 1653.74,1341.27 1638.94,1341.27 1624.13,1341.27 1609.33,1341.27 1594.53,1341.27 1579.73,1341.27 1594.53,1341.27 1579.73,1341.27 1594.53,1341.27 1609.33,1341.27 1624.13,1341.27 1609.33,1341.27 1624.13,1341.27 1609.33,1341.27 1624.13,1341.27 1609.33,1341.27 1594.53,1341.27 1579.73,1341.27 1594.53,1341.27 1579.73,1341.27 1564.93,1341.27 1579.73,1341.27 1594.53,1341.27 1579.73,1341.27 1564.93,1341.27 1579.73,1341.27 1594.53,1341.27 1609.33,1341.27 1624.13,1341.27 1638.94,1341.27 1624.13,1341.27 1638.94,1341.27 1653.74,1341.27 1668.54,1341.27 1683.34,1341.27 1698.14,1341.27 1683.34,1341.27 1698.14,1341.27 1712.94,1341.27 1727.74,1341.27 1742.54,1341.27 1757.34,1341.27 1772.14,1341.27 1786.94,1341.27 1772.14,1341.27 1786.94,1341.27 1772.14,1341.27 1786.94,1341.27 1772.14,1341.27 1786.94,1341.27 1801.74,1341.27 1816.54,1341.27 1831.34,1341.27 1816.54,1341.27 1801.74,1341.27 1816.54,1341.27 1801.74,1341.27 1786.94,1341.27 1772.14,1341.27 1786.94,1341.27 1772.14,1341.27 1757.34,1341.27 1772.14,1341.27 1757.34,1341.27 1772.14,1341.27 1786.94,1341.27 1772.14,1341.27 1786.94,1341.27 1801.74,1341.27 1816.54,1341.27 1831.34,1341.27 1846.14,1341.27 1831.34,1341.27 1846.14,1341.27 1860.94,1341.27 1846.14,1341.27 1831.34,1341.27 1816.54,1341.27 1831.34,1341.27 1816.54,1341.27 1801.74,1341.27 1816.54,1341.27 1831.34,1341.27 1816.54,1341.27 1801.74,1341.27 1816.54,1341.27 1801.74,1341.27 1816.54,1341.27 1831.34,1341.27 1816.54,1341.27 1801.74,1341.27 1816.54,1341.27 1801.74,1341.27 1786.94,1341.27 1772.14,1341.27 1786.94,1341.27 1801.74,1341.27 1786.94,1341.27 1801.74,1341.27 1786.94,1341.27 1801.74,1341.27 1786.94,1341.27 1772.14,1341.27 1757.34,1341.27 1742.54,1341.27 1757.34,1341.27 1742.54,1341.27 1757.34,1341.27 1742.54,1341.27 1727.74,1341.27 1712.94,1341.27 1698.14,1341.27 1712.94,1341.27 1698.14,1341.27 1712.94,1341.27 1727.74,1341.27 1712.94,1341.27 1698.14,1341.27 1712.94,1341.27 1727.74,1341.27 1712.94,1341.27 1698.14,1341.27 1683.34,1341.27 1698.14,1341.27 1712.94,1341.27 1727.74,1341.27 1712.94,1341.27 "/>
<path clip-path="url(#clip160)" d="M1518.28 198.898 L2279.02 198.898 L2279.02 95.2176 L1518.28 95.2176  Z" fill="#ffffff" fill-rule="evenodd" fill-opacity="1"/>
<polyline clip-path="url(#clip160)" style="stroke:#000000; stroke-linecap:round; stroke-linejoin:round; stroke-width:4; stroke-opacity:1; fill:none" points="1518.28,198.898 2279.02,198.898 2279.02,95.2176 1518.28,95.2176 1518.28,198.898 "/>
<polyline clip-path="url(#clip160)" style="stroke:#009af9; stroke-linecap:round; stroke-linejoin:round; stroke-width:4; stroke-opacity:1; fill:none" points="1542.86,147.058 1690.33,147.058 "/>
<path clip-path="url(#clip160)" d="M1725.53 128.366 Q1722.43 133.69 1720.93 138.898 Q1719.42 144.106 1719.42 149.453 Q1719.42 154.801 1720.93 160.055 Q1722.45 165.287 1725.53 170.588 L1721.83 170.588 Q1718.36 165.148 1716.62 159.893 Q1714.91 154.639 1714.91 149.453 Q1714.91 144.291 1716.62 139.06 Q1718.33 133.828 1721.83 128.366 L1725.53 128.366 Z" fill="#000000" fill-rule="nonzero" fill-opacity="1" /><path clip-path="url(#clip160)" d="M1745.58 151.305 Q1740.42 151.305 1738.43 152.486 Q1736.44 153.666 1736.44 156.514 Q1736.44 158.782 1737.92 160.125 Q1739.42 161.444 1741.99 161.444 Q1745.53 161.444 1747.66 158.944 Q1749.82 156.421 1749.82 152.254 L1749.82 151.305 L1745.58 151.305 M1754.07 149.546 L1754.07 164.338 L1749.82 164.338 L1749.82 160.402 Q1748.36 162.763 1746.18 163.898 Q1744.01 165.009 1740.86 165.009 Q1736.88 165.009 1734.51 162.787 Q1732.18 160.541 1732.18 156.791 Q1732.18 152.416 1735.09 150.194 Q1738.03 147.972 1743.84 147.972 L1749.82 147.972 L1749.82 147.555 Q1749.82 144.615 1747.87 143.018 Q1745.95 141.398 1742.45 141.398 Q1740.23 141.398 1738.13 141.93 Q1736.02 142.463 1734.07 143.527 L1734.07 139.592 Q1736.41 138.69 1738.61 138.25 Q1740.81 137.787 1742.89 137.787 Q1748.52 137.787 1751.3 140.703 Q1754.07 143.62 1754.07 149.546 Z" fill="#000000" fill-rule="nonzero" fill-opacity="1" /><path clip-path="url(#clip160)" d="M1772.11 147.694 L1772.11 154.916 L1780.23 154.916 L1780.23 157.115 L1772.11 157.115 L1772.11 164.338 L1769.68 164.338 L1769.68 157.115 L1761.55 157.115 L1761.55 154.916 L1769.68 154.916 L1769.68 147.694 L1772.11 147.694 Z" fill="#000000" fill-rule="nonzero" fill-opacity="1" /><path clip-path="url(#clip160)" d="M1791.99 160.449 L1791.99 174.199 L1787.71 174.199 L1787.71 138.412 L1791.99 138.412 L1791.99 142.347 Q1793.33 140.032 1795.37 138.921 Q1797.43 137.787 1800.28 137.787 Q1805 137.787 1807.94 141.537 Q1810.9 145.287 1810.9 151.398 Q1810.9 157.509 1807.94 161.259 Q1805 165.009 1800.28 165.009 Q1797.43 165.009 1795.37 163.898 Q1793.33 162.763 1791.99 160.449 M1806.48 151.398 Q1806.48 146.699 1804.54 144.037 Q1802.62 141.352 1799.24 141.352 Q1795.86 141.352 1793.91 144.037 Q1791.99 146.699 1791.99 151.398 Q1791.99 156.097 1793.91 158.782 Q1795.86 161.444 1799.24 161.444 Q1802.62 161.444 1804.54 158.782 Q1806.48 156.097 1806.48 151.398 Z" fill="#000000" fill-rule="nonzero" fill-opacity="1" /><path clip-path="url(#clip160)" d="M1832.99 142.393 Q1832.27 141.977 1831.41 141.791 Q1830.58 141.583 1829.56 141.583 Q1825.95 141.583 1824 143.944 Q1822.08 146.282 1822.08 150.68 L1822.08 164.338 L1817.8 164.338 L1817.8 138.412 L1822.08 138.412 L1822.08 142.44 Q1823.43 140.078 1825.58 138.944 Q1827.73 137.787 1830.81 137.787 Q1831.25 137.787 1831.78 137.856 Q1832.31 137.903 1832.96 138.018 L1832.99 142.393 Z" fill="#000000" fill-rule="nonzero" fill-opacity="1" /><path clip-path="url(#clip160)" d="M1846.46 141.398 Q1843.03 141.398 1841.04 144.083 Q1839.05 146.745 1839.05 151.398 Q1839.05 156.051 1841.02 158.736 Q1843.01 161.398 1846.46 161.398 Q1849.86 161.398 1851.85 158.713 Q1853.84 156.027 1853.84 151.398 Q1853.84 146.791 1851.85 144.106 Q1849.86 141.398 1846.46 141.398 M1846.46 137.787 Q1852.01 137.787 1855.18 141.398 Q1858.36 145.009 1858.36 151.398 Q1858.36 157.764 1855.18 161.398 Q1852.01 165.009 1846.46 165.009 Q1840.88 165.009 1837.71 161.398 Q1834.56 157.764 1834.56 151.398 Q1834.56 145.009 1837.71 141.398 Q1840.88 137.787 1846.46 137.787 Z" fill="#000000" fill-rule="nonzero" fill-opacity="1" /><path clip-path="url(#clip160)" d="M1869.63 131.051 L1869.63 138.412 L1878.4 138.412 L1878.4 141.722 L1869.63 141.722 L1869.63 155.796 Q1869.63 158.967 1870.49 159.87 Q1871.37 160.773 1874.03 160.773 L1878.4 160.773 L1878.4 164.338 L1874.03 164.338 Q1869.1 164.338 1867.22 162.509 Q1865.35 160.657 1865.35 155.796 L1865.35 141.722 L1862.22 141.722 L1862.22 138.412 L1865.35 138.412 L1865.35 131.051 L1869.63 131.051 Z" fill="#000000" fill-rule="nonzero" fill-opacity="1" /><path clip-path="url(#clip160)" d="M1906.18 150.31 L1906.18 152.393 L1886.6 152.393 Q1886.87 156.791 1889.24 159.106 Q1891.62 161.398 1895.86 161.398 Q1898.31 161.398 1900.6 160.796 Q1902.92 160.194 1905.18 158.99 L1905.18 163.018 Q1902.89 163.99 1900.49 164.5 Q1898.08 165.009 1895.6 165.009 Q1889.4 165.009 1885.76 161.398 Q1882.15 157.787 1882.15 151.629 Q1882.15 145.264 1885.58 141.537 Q1889.03 137.787 1894.86 137.787 Q1900.09 137.787 1903.12 141.166 Q1906.18 144.523 1906.18 150.31 M1901.92 149.06 Q1901.87 145.565 1899.95 143.481 Q1898.06 141.398 1894.91 141.398 Q1891.34 141.398 1889.19 143.412 Q1887.06 145.426 1886.74 149.083 L1901.92 149.06 Z" fill="#000000" fill-rule="nonzero" fill-opacity="1" /><path clip-path="url(#clip160)" d="M1913.17 138.412 L1917.43 138.412 L1917.43 164.338 L1913.17 164.338 L1913.17 138.412 M1913.17 128.319 L1917.43 128.319 L1917.43 133.713 L1913.17 133.713 L1913.17 128.319 Z" fill="#000000" fill-rule="nonzero" fill-opacity="1" /><path clip-path="url(#clip160)" d="M1947.89 148.689 L1947.89 164.338 L1943.63 164.338 L1943.63 148.828 Q1943.63 145.148 1942.2 143.319 Q1940.76 141.49 1937.89 141.49 Q1934.44 141.49 1932.45 143.69 Q1930.46 145.889 1930.46 149.685 L1930.46 164.338 L1926.18 164.338 L1926.18 138.412 L1930.46 138.412 L1930.46 142.44 Q1931.99 140.102 1934.05 138.944 Q1936.13 137.787 1938.84 137.787 Q1943.31 137.787 1945.6 140.565 Q1947.89 143.319 1947.89 148.689 Z" fill="#000000" fill-rule="nonzero" fill-opacity="1" /><path clip-path="url(#clip160)" d="M1972.92 139.176 L1972.92 143.203 Q1971.11 142.277 1969.17 141.815 Q1967.22 141.352 1965.14 141.352 Q1961.97 141.352 1960.37 142.324 Q1958.8 143.296 1958.8 145.24 Q1958.8 146.722 1959.93 147.578 Q1961.06 148.412 1964.49 149.176 L1965.95 149.5 Q1970.49 150.472 1972.38 152.254 Q1974.3 154.014 1974.3 157.185 Q1974.3 160.796 1971.43 162.902 Q1968.59 165.009 1963.59 165.009 Q1961.5 165.009 1959.24 164.592 Q1956.99 164.199 1954.49 163.388 L1954.49 158.99 Q1956.85 160.217 1959.14 160.842 Q1961.43 161.444 1963.68 161.444 Q1966.69 161.444 1968.31 160.426 Q1969.93 159.384 1969.93 157.509 Q1969.93 155.773 1968.75 154.847 Q1967.59 153.921 1963.63 153.064 L1962.15 152.717 Q1958.19 151.884 1956.43 150.171 Q1954.68 148.435 1954.68 145.426 Q1954.68 141.768 1957.27 139.778 Q1959.86 137.787 1964.63 137.787 Q1966.99 137.787 1969.07 138.134 Q1971.16 138.481 1972.92 139.176 Z" fill="#000000" fill-rule="nonzero" fill-opacity="1" /><path clip-path="url(#clip160)" d="M1982.18 158.458 L1987.06 158.458 L1987.06 162.439 L1983.26 169.847 L1980.28 169.847 L1982.18 162.439 L1982.18 158.458 Z" fill="#000000" fill-rule="nonzero" fill-opacity="1" /><path clip-path="url(#clip160)" d="M2014.77 151.398 Q2014.77 146.699 2012.82 144.037 Q2010.9 141.352 2007.52 141.352 Q2004.14 141.352 2002.2 144.037 Q2000.28 146.699 2000.28 151.398 Q2000.28 156.097 2002.2 158.782 Q2004.14 161.444 2007.52 161.444 Q2010.9 161.444 2012.82 158.782 Q2014.77 156.097 2014.77 151.398 M2000.28 142.347 Q2001.62 140.032 2003.66 138.921 Q2005.72 137.787 2008.56 137.787 Q2013.29 137.787 2016.23 141.537 Q2019.19 145.287 2019.19 151.398 Q2019.19 157.509 2016.23 161.259 Q2013.29 165.009 2008.56 165.009 Q2005.72 165.009 2003.66 163.898 Q2001.62 162.763 2000.28 160.449 L2000.28 164.338 L1995.99 164.338 L1995.99 128.319 L2000.28 128.319 L2000.28 142.347 Z" fill="#000000" fill-rule="nonzero" fill-opacity="1" /><path clip-path="url(#clip160)" d="M2035.51 147.694 L2035.51 154.916 L2043.63 154.916 L2043.63 157.115 L2035.51 157.115 L2035.51 164.338 L2033.08 164.338 L2033.08 157.115 L2024.95 157.115 L2024.95 154.916 L2033.08 154.916 L2033.08 147.694 L2035.51 147.694 Z" fill="#000000" fill-rule="nonzero" fill-opacity="1" /><path clip-path="url(#clip160)" d="M2055.39 160.449 L2055.39 174.199 L2051.11 174.199 L2051.11 138.412 L2055.39 138.412 L2055.39 142.347 Q2056.73 140.032 2058.77 138.921 Q2060.83 137.787 2063.68 137.787 Q2068.4 137.787 2071.34 141.537 Q2074.3 145.287 2074.3 151.398 Q2074.3 157.509 2071.34 161.259 Q2068.4 165.009 2063.68 165.009 Q2060.83 165.009 2058.77 163.898 Q2056.73 162.763 2055.39 160.449 M2069.88 151.398 Q2069.88 146.699 2067.94 144.037 Q2066.02 141.352 2062.64 141.352 Q2059.26 141.352 2057.31 144.037 Q2055.39 146.699 2055.39 151.398 Q2055.39 156.097 2057.31 158.782 Q2059.26 161.444 2062.64 161.444 Q2066.02 161.444 2067.94 158.782 Q2069.88 156.097 2069.88 151.398 Z" fill="#000000" fill-rule="nonzero" fill-opacity="1" /><path clip-path="url(#clip160)" d="M2096.39 142.393 Q2095.67 141.977 2094.81 141.791 Q2093.98 141.583 2092.96 141.583 Q2089.35 141.583 2087.41 143.944 Q2085.48 146.282 2085.48 150.68 L2085.48 164.338 L2081.2 164.338 L2081.2 138.412 L2085.48 138.412 L2085.48 142.44 Q2086.83 140.078 2088.98 138.944 Q2091.13 137.787 2094.21 137.787 Q2094.65 137.787 2095.18 137.856 Q2095.72 137.903 2096.36 138.018 L2096.39 142.393 Z" fill="#000000" fill-rule="nonzero" fill-opacity="1" /><path clip-path="url(#clip160)" d="M2109.86 141.398 Q2106.43 141.398 2104.44 144.083 Q2102.45 146.745 2102.45 151.398 Q2102.45 156.051 2104.42 158.736 Q2106.41 161.398 2109.86 161.398 Q2113.26 161.398 2115.25 158.713 Q2117.24 156.027 2117.24 151.398 Q2117.24 146.791 2115.25 144.106 Q2113.26 141.398 2109.86 141.398 M2109.86 137.787 Q2115.42 137.787 2118.59 141.398 Q2121.76 145.009 2121.76 151.398 Q2121.76 157.764 2118.59 161.398 Q2115.42 165.009 2109.86 165.009 Q2104.28 165.009 2101.11 161.398 Q2097.96 157.764 2097.96 151.398 Q2097.96 145.009 2101.11 141.398 Q2104.28 137.787 2109.86 137.787 Z" fill="#000000" fill-rule="nonzero" fill-opacity="1" /><path clip-path="url(#clip160)" d="M2133.03 131.051 L2133.03 138.412 L2141.8 138.412 L2141.8 141.722 L2133.03 141.722 L2133.03 155.796 Q2133.03 158.967 2133.89 159.87 Q2134.77 160.773 2137.43 160.773 L2141.8 160.773 L2141.8 164.338 L2137.43 164.338 Q2132.5 164.338 2130.62 162.509 Q2128.75 160.657 2128.75 155.796 L2128.75 141.722 L2125.62 141.722 L2125.62 138.412 L2128.75 138.412 L2128.75 131.051 L2133.03 131.051 Z" fill="#000000" fill-rule="nonzero" fill-opacity="1" /><path clip-path="url(#clip160)" d="M2169.58 150.31 L2169.58 152.393 L2150 152.393 Q2150.28 156.791 2152.64 159.106 Q2155.02 161.398 2159.26 161.398 Q2161.71 161.398 2164 160.796 Q2166.32 160.194 2168.59 158.99 L2168.59 163.018 Q2166.29 163.99 2163.89 164.5 Q2161.48 165.009 2159 165.009 Q2152.8 165.009 2149.16 161.398 Q2145.55 157.787 2145.55 151.629 Q2145.55 145.264 2148.98 141.537 Q2152.43 137.787 2158.26 137.787 Q2163.49 137.787 2166.53 141.166 Q2169.58 144.523 2169.58 150.31 M2165.32 149.06 Q2165.28 145.565 2163.35 143.481 Q2161.46 141.398 2158.31 141.398 Q2154.74 141.398 2152.59 143.412 Q2150.46 145.426 2150.14 149.083 L2165.32 149.06 Z" fill="#000000" fill-rule="nonzero" fill-opacity="1" /><path clip-path="url(#clip160)" d="M2176.57 138.412 L2180.83 138.412 L2180.83 164.338 L2176.57 164.338 L2176.57 138.412 M2176.57 128.319 L2180.83 128.319 L2180.83 133.713 L2176.57 133.713 L2176.57 128.319 Z" fill="#000000" fill-rule="nonzero" fill-opacity="1" /><path clip-path="url(#clip160)" d="M2211.29 148.689 L2211.29 164.338 L2207.03 164.338 L2207.03 148.828 Q2207.03 145.148 2205.6 143.319 Q2204.16 141.49 2201.29 141.49 Q2197.85 141.49 2195.85 143.69 Q2193.86 145.889 2193.86 149.685 L2193.86 164.338 L2189.58 164.338 L2189.58 138.412 L2193.86 138.412 L2193.86 142.44 Q2195.39 140.102 2197.45 138.944 Q2199.53 137.787 2202.24 137.787 Q2206.71 137.787 2209 140.565 Q2211.29 143.319 2211.29 148.689 Z" fill="#000000" fill-rule="nonzero" fill-opacity="1" /><path clip-path="url(#clip160)" d="M2236.32 139.176 L2236.32 143.203 Q2234.51 142.277 2232.57 141.815 Q2230.62 141.352 2228.54 141.352 Q2225.37 141.352 2223.77 142.324 Q2222.2 143.296 2222.2 145.24 Q2222.2 146.722 2223.33 147.578 Q2224.47 148.412 2227.89 149.176 L2229.35 149.5 Q2233.89 150.472 2235.78 152.254 Q2237.71 154.014 2237.71 157.185 Q2237.71 160.796 2234.84 162.902 Q2231.99 165.009 2226.99 165.009 Q2224.91 165.009 2222.64 164.592 Q2220.39 164.199 2217.89 163.388 L2217.89 158.99 Q2220.25 160.217 2222.54 160.842 Q2224.84 161.444 2227.08 161.444 Q2230.09 161.444 2231.71 160.426 Q2233.33 159.384 2233.33 157.509 Q2233.33 155.773 2232.15 154.847 Q2230.99 153.921 2227.03 153.064 L2225.55 152.717 Q2221.6 151.884 2219.84 150.171 Q2218.08 148.435 2218.08 145.426 Q2218.08 141.768 2220.67 139.778 Q2223.26 137.787 2228.03 137.787 Q2230.39 137.787 2232.47 138.134 Q2234.56 138.481 2236.32 139.176 Z" fill="#000000" fill-rule="nonzero" fill-opacity="1" /><path clip-path="url(#clip160)" d="M2243.82 128.366 L2247.52 128.366 Q2250.99 133.828 2252.71 139.06 Q2254.44 144.291 2254.44 149.453 Q2254.44 154.639 2252.71 159.893 Q2250.99 165.148 2247.52 170.588 L2243.82 170.588 Q2246.9 165.287 2248.4 160.055 Q2249.93 154.801 2249.93 149.453 Q2249.93 144.106 2248.4 138.898 Q2246.9 133.69 2243.82 128.366 Z" fill="#000000" fill-rule="nonzero" fill-opacity="1" /></svg>
